<?plantuml 1.2026.1?><svg xmlns="http://www.w3.org/2000/svg" xmlns:xlink="http://www.w3.org/1999/xlink" contentStyleType="text/css" data-diagram-type="DESCRIPTION" height="120px" preserveAspectRatio="none" style="width:491px;height:120px;background:#0B0C0F;" version="1.1" viewBox="0 0 491 120" width="491px" zoomAndPan="magnify"><defs/><g><rect fill="#0B0C0F" height="120" style="stroke:none;stroke-width:1;" width="491" x="0" y="0"/><!--entity data--><g class="entity" data-qualified-name="data" data-source-line="10" id="ent0002"><rect fill="#1A1A2E" height="36.2969" rx="7.5" ry="7.5" style="stroke:#31F1A8;stroke-width:0.5;" width="107.5547" x="7" y="43"/><text fill="#FFFFFF" font-family="sans-serif" font-size="14" lengthAdjust="spacing" textLength="87.5547" x="17" y="65.9951">Deine Daten</text></g><!--entity cloud--><g class="entity" data-qualified-name="cloud" data-source-line="11" id="ent0003"><rect fill="#DC2626" height="36.2969" rx="7.5" ry="7.5" style="stroke:#31F1A8;stroke-width:0.5;" width="78.1465" x="249.44" y="7"/><text fill="#FFFFFF" font-family="sans-serif" font-size="14" lengthAdjust="spacing" textLength="58.1465" x="259.44" y="29.9951">Cloud AI</text></g><!--entity local--><g class="entity" data-qualified-name="local" data-source-line="12" id="ent0004"><rect fill="#22C55E" height="36.2969" rx="7.5" ry="7.5" style="stroke:#31F1A8;stroke-width:0.5;" width="121.9102" x="227.55" y="78"/><text fill="#FFFFFF" font-family="sans-serif" font-size="14" lengthAdjust="spacing" textLength="101.9102" x="237.55" y="100.9951">Ollama (Lokal)</text></g><!--entity answer--><g class="entity" data-qualified-name="answer" data-source-line="13" id="ent0005"><rect fill="#1A1A2E" height="36.2969" rx="7.5" ry="7.5" style="stroke:#31F1A8;stroke-width:0.5;" width="75.2002" x="410.46" y="43"/><text fill="#FFFFFF" font-family="sans-serif" font-size="14" lengthAdjust="spacing" textLength="55.2002" x="420.46" y="65.9951">Antwort</text></g><!--link data to cloud--><g class="link" data-entity-1="ent0002" data-entity-2="ent0003" data-link-type="dependency" data-source-line="15" id="lnk6"><path d="M114.99,52.67 C156.18,46.1 206.315,38.106 243.205,32.216" fill="none" id="data-to-cloud" style="stroke:#31F1A8;stroke-width:1;"/><polygon fill="#31F1A8" points="249.13,31.27,239.6119,28.739,244.1925,32.0583,240.8732,36.639,249.13,31.27" style="stroke:#31F1A8;stroke-width:1;"/><text fill="#FFFFFF" font-family="sans-serif" font-size="13" lengthAdjust="spacing" textLength="51.8477" x="145.55" y="36.2169">Internet</text></g><!--link data to local--><g class="link" data-entity-1="ent0002" data-entity-2="ent0004" data-link-type="dependency" data-source-line="16" id="lnk7"><path d="M109.32,79.74 C120.7,83.48 132.93,86.95 144.55,89.15 C171.41,94.25 195.5818,96.1128 221.2618,96.7428" fill="none" id="data-to-local" style="stroke:#31F1A8;stroke-width:1;"/><polygon fill="#31F1A8" points="227.26,96.89,218.3608,92.6705,222.2615,96.7674,218.1646,100.6681,227.26,96.89" style="stroke:#31F1A8;stroke-width:1;"/><text fill="#FFFFFF" font-family="sans-serif" font-size="13" lengthAdjust="spacing" textLength="34.3027" x="154.05" y="85.2169">Lokal</text></g><!--link cloud to answer--><g class="link" data-entity-1="ent0003" data-entity-2="ent0005" data-link-type="dependency" data-source-line="17" id="lnk8"><path d="M328.05,33.96 C353.01,39.66 379.4904,45.715 404.1604,51.345" fill="none" id="cloud-to-answer" style="stroke:#31F1A8;stroke-width:1;"/><polygon fill="#31F1A8" points="410.01,52.68,402.1256,46.7778,405.1353,51.5675,400.3456,54.5773,410.01,52.68" style="stroke:#31F1A8;stroke-width:1;"/></g><!--link local to answer--><g class="link" data-entity-1="ent0004" data-entity-2="ent0005" data-link-type="dependency" data-source-line="18" id="lnk9"><path d="M349.52,82.82 C369.87,78.3 386.1426,74.6802 404.1626,70.6802" fill="none" id="local-to-answer" style="stroke:#31F1A8;stroke-width:1;"/><polygon fill="#31F1A8" points="410.02,69.38,400.3671,67.4254,405.1388,70.4635,402.1007,75.2353,410.02,69.38" style="stroke:#31F1A8;stroke-width:1;"/></g><?plantuml-src RP3TQiCm34Rl_HIYkTak2ab6okZ584q950Px1irMMnFN6ef2Nd_B3wqtTccTe-yJxZiVlr3m1fzekulm45t3WGMo_90tUMlwk-7eZ4FGbgCkodZrIebGY_2uRhyKRL6_9d2DbaW2HPK2iehn4kZmzu822opfNvN5aVokCe7E2ieW_d9LS7woFKTZxckmEPAF14TKYXl07Xmgfhm9F3YeJpEqyoDpjjoLkzJw205l24_lt65udjt05WDaPMchYbAtZZgow2nXx4SIOwPMs6xVreOzdABIpy_eWonvUvWhpE9DypLYmO_1Dm00?></g></svg>